Coordinates
version=1
nRows=16
nColumns=36
inDegrees=yes

Units are S.I. units (second, meters, Newtons, ...)
If the header above contains a line with 'inDegrees', this indicates whether rotational values are in degrees (yes) or radians (no).

endheader
time	pelvis_tilt	pelvis_list	pelvis_rotation	pelvis_tx	pelvis_ty	pelvis_tz	hip_flexion_r	hip_adduction_r	hip_rotation_r	knee_angle_r	knee_angle_r_beta	ankle_angle_r	subtalar_angle_r	mtp_angle_r	hip_flexion_l	hip_adduction_l	hip_rotation_l	knee_angle_l	knee_angle_l_beta	ankle_angle_l	subtalar_angle_l	mtp_angle_l	lumbar_extension	lumbar_bending	lumbar_rotation	arm_flex_r	arm_add_r	arm_rot_r	elbow_flex_r	pro_sup_r	arm_flex_l	arm_add_l	arm_rot_l	elbow_flex_l	pro_sup_l
      0.00000000	     -0.50837543	      0.00680150	      2.42521719	      0.41019185	      0.92771880	      0.00157154	     -2.21878066	     -6.45825799	      4.72026924	      6.08039447	      0.10612290	      2.79209518	     -9.91628443	     -5.01085653	     -0.55873444	     -4.87829015	      1.27041902	      6.60294629	      0.11524315	      3.93125306	    -11.27980644	     -5.01085653	     -6.06490912	      1.95246631	     -1.74010339	      0.16694644	     -7.41492423	      4.93824688	     23.80036484	     77.01852845	      2.42530332	     -5.72490058	     13.52635528	     17.04936870	     66.01777311
      0.01666670	     -2.27627027	      0.19689935	      1.94437091	      0.41214953	      0.92494970	      0.00184668	     -0.82159958	     -6.99158924	      4.96960792	      5.21360752	      0.09099462	      5.68266227	     -5.71224909	     -6.12521675	      1.32532674	     -4.35160499	      0.96403517	      5.78969034	      0.10104916	      3.18540138	    -10.27672262	     -6.12521675	     -2.98867400	      1.71285366	     -1.65697880	     -0.48099872	     -5.68127648	     -3.18417786	     22.60801484	     79.11039606	      1.41070587	     -3.85316449	      0.20016096	     16.84601961	     73.35567189
      0.03333330	     -2.74485173	      0.68640427	      1.27686266	      0.41242181	      0.92450981	      0.00222646	     -0.48812103	     -7.67145627	      5.29347868	      4.58922034	      0.08009701	      6.05441963	     -4.95011608	     -6.28785154	      1.18716166	     -3.82695337	      0.02039611	      4.88299208	      0.08522429	      2.45189833	     -9.41902666	     -6.28785154	     -2.65126822	      0.78680263	     -1.31524760	     -0.69439556	     -5.15781304	     -4.61169076	     22.59777646	     77.32577139	      1.09558397	     -4.08292997	     -0.66772123	     17.37605986	     72.23073877
      0.05000000	     -2.17241478	      1.03120387	      0.85083375	      0.41203574	      0.92264485	      0.00336138	     -0.90013849	     -8.03599049	      5.37956866	      4.46719087	      0.07796719	      6.58315620	     -5.09635712	     -6.47991284	     -0.21121071	     -3.48530065	     -0.11817147	      3.67823069	      0.06419724	      1.76521261	     -9.58931199	     -6.47991284	     -3.55094715	      0.04320177	     -0.73687662	     -0.67206213	     -4.73276650	     -5.99873173	     22.58847379	     75.07446112	      1.10919139	     -4.33021020	     -1.59260896	     17.82248330	     70.68485836
      0.06666670	     -1.81070207	      1.02295270	      0.43715068	      0.41188634	      0.92996466	      0.00308517	     -1.14874018	     -7.97496322	      5.29698953	      4.38095897	      0.07646216	      6.32275156	     -5.59153806	     -6.49702095	     -1.21832192	     -3.47798653	     -0.03667831	      2.59402083	      0.04527420	      1.30534441	     -9.53679420	     -6.49702095	     -4.29873607	     -0.13537278	     -0.10700456	     -0.35650377	     -4.52468511	     -6.44033417	     22.29726318	     74.98658649	      1.39159684	     -4.24766277	     -1.97015141	     17.92639457	     70.63366019
      0.08333330	     -1.14235541	      0.94754774	      0.17766742	      0.41139984	      0.92788465	      0.00366674	     -1.78937255	     -7.73371899	      5.12962677	      4.28339190	      0.07475929	      6.00228323	     -6.37480318	     -6.59088687	     -2.29808065	     -3.56327739	      0.15322922	      1.98764004	      0.03469086	      1.22508058	     -9.77305361	     -6.59088687	     -5.40403774	     -0.25062756	      0.50399665	      0.12262043	     -4.39146603	     -6.84015954	     22.00779115	     73.95983189	      2.02648565	     -4.24697658	     -2.73008454	     18.16092998	     69.74538522
      0.10000000	     -0.81583747	      0.92014178	     -0.02667130	      0.41115023	      0.92885323	      0.00340472	     -2.07772572	     -7.59171652	      4.87535301	      4.12425564	      0.07198184	      5.85095521	     -6.91887818	     -6.78963014	     -2.88364787	     -3.58505979	      0.13605415	      1.60288205	      0.02797557	      1.12786277	     -9.88161698	     -6.78963014	     -6.06705956	     -0.40417208	      0.94974231	      0.51815296	     -4.20726012	     -7.12460071	     21.67472400	     72.09793424	      2.57592939	     -4.15797318	     -3.87902544	     19.15642748	     68.19945042
      0.11666670	     -0.69613937	      0.90714102	     -0.04761883	      0.41076480	      0.92849432	      0.00395708	     -2.21826622	     -7.45064444	      4.70608979	      3.96339476	      0.06917429	      5.53267623	     -7.81940064	     -7.16148056	     -3.10843037	     -3.59110374	      0.44378409	      1.51031773	      0.02636002	      0.92824563	    -10.60121427	     -7.16148056	     -6.36277337	     -0.60871030	      0.79022591	      1.08967821	     -4.30477934	     -5.32297056	     21.21744766	     72.55453914	      3.19077802	     -4.30850412	     -5.37373659	     19.30373480	     68.43821641
      0.13333330	     -0.48261942	      0.89332860	     -0.11833109	      0.41068975	      0.92920150	      0.00365763	     -2.45013590	     -7.39475483	      4.29197819	      3.79807840	      0.06628897	      5.57636691	     -7.95107543	     -7.26871186	     -3.45431081	     -3.60250270	      0.30568401	      1.41168048	      0.02463847	      0.86315243	    -10.60778221	     -7.26871186	     -6.72398986	     -0.84045661	      0.90351856	      1.32023773	     -4.11700921	     -5.69787047	     21.31556907	     70.07656754	      3.81419706	     -4.40382943	     -6.30815610	     19.95353603	     66.60728942
      0.15000000	     -0.46025019	      0.83940152	     -0.10321114	      0.41048898	      0.92853863	      0.00402234	     -2.51395982	     -7.30129582	      4.08059982	      3.58321774	      0.06253895	      5.32825611	     -8.45511643	     -7.37620538	     -3.50397875	     -3.66762369	      0.70378927	      1.33891051	      0.02336840	      0.48180428	    -11.34952941	     -7.37620538	     -6.69947328	     -0.99494474	      0.95918045	      1.52290719	     -4.24954244	     -4.46519237	     21.02264582	     71.77669142	      4.37530950	     -4.66285912	     -6.66383467	     20.30735653	     67.99984082
      0.16666670	     -0.36884081	      0.77901234	     -0.15316250	      0.41056569	      0.92920007	      0.00359142	     -2.64887317	     -7.24282207	      3.85714513	      3.42649903	      0.05980369	      4.99135030	     -8.98315707	     -7.45195417	     -3.64487860	     -3.73740495	      0.69224997	      1.25610209	      0.02192312	      0.41328423	    -11.24421660	     -7.45195417	     -6.78759455	     -1.17197177	      1.15252812	      1.70029100	     -4.02395072	     -6.29444347	     21.04220660	     76.75578909	      4.88244531	     -4.60823510	     -9.66651476	     20.81448056	     72.16801259
      0.18333330	     -0.37511153	      0.72413351	     -0.24795907	      0.41421095	      0.92870513	     -0.00049774	     -2.71813451	     -7.29736809	      3.67233716	      3.39333893	      0.05922494	      4.97414754	     -9.05965923	     -7.45200707	     -3.72448736	     -3.72311696	      0.70668138	      1.20975863	      0.02111427	      0.39687170	    -11.21874768	     -7.45200707	     -6.55591417	     -1.17495564	      1.10769256	      1.89205640	     -4.14710104	     -6.30670878	     21.10096968	     76.75750909	      5.27833268	     -4.76939734	     -9.69117151	     20.95468483	     72.16688998
      0.20000000	     -0.06920637	      0.71903559	     -0.06645728	      0.41406169	      0.92944956	     -0.00117786	     -3.30179526	     -7.38685471	      3.10558130	      3.11550196	      0.05437577	      4.72866532	     -9.25590930	     -7.46256609	     -4.16877867	     -3.65291502	      0.85716912	      1.04676188	      0.01826944	      0.54719909	    -10.66866326	     -7.46256609	     -6.88857553	     -1.30230886	      1.15839726	      2.04399813	     -4.36131436	     -6.32744055	     21.23289658	     75.02783941	      5.97539429	     -4.82748957	    -10.14012481	     21.01729482	     70.76229645
      0.21666670	     -0.08374199	      0.66057567	      0.01881890	      0.41381784	      0.92881289	     -0.00046198	     -3.42834544	     -7.36409659	      2.71163883	      2.96898585	      0.05181858	      4.47746250	     -9.65576544	     -7.48856337	     -4.22069271	     -3.64023981	      1.17289146	      0.98065278	      0.01711562	      0.46975835	    -10.93274855	     -7.48856337	     -6.69943677	     -1.34974019	      1.13566930	      2.23423063	     -4.64773719	     -7.20456744	     21.51570838	     78.16482299	      6.55618730	     -5.01428449	    -10.70504259	     20.64145378	     73.13449037
      0.23333330	     -0.07237107	      0.65053545	      0.16419160	      0.41383460	      0.92619970	     -0.00113338	     -3.54705366	     -7.39944459	      2.40669876	      2.88205657	      0.05030138	      4.46859550	     -9.91743865	     -7.49720525	     -4.27437608	     -3.59813919	      1.42298277	      0.93228212	      0.01627139	      0.56366259	    -10.94602034	     -7.49720525	     -6.62343338	     -1.40484704	      1.14826375	      2.66056052	     -5.09129114	     -8.05093630	     21.94668283	     78.45549907	      7.22456589	     -5.28252346	    -10.71532086	     20.30254028	     73.34661349
      0.25000000	     -0.13664884	      0.65239833	      0.40989140	      0.40957877	      0.92891569	     -0.00490568	     -3.50088458	     -7.47520957	      2.03718772	      2.86831238	      0.05006149	      4.35628765	    -10.11920946	     -7.49723415	     -4.11902725	     -3.52620741	      1.74090308	      0.89502602	      0.01562115	      0.55443311	    -10.95231172	     -7.49723415	     -6.67048210	     -1.43139824	      0.89057445	      3.25418610	     -5.56001538	     -8.18289854	     22.21255239	     78.43450358	      7.96840194	     -5.53286886	    -10.80397566	     20.31781363	     73.34018969
